<svg id="visual" viewBox="0 0 900 600" width="900" height="600" xmlns="http://www.w3.org/2000/svg" xmlns:xlink="http://www.w3.org/1999/xlink" version="1.1"><rect width="900" height="600" fill="#fff"></rect><g><g transform="translate(587 168)"><path d="M0 -103.3L89.5 -51.7L89.5 51.7L0 103.3L-89.5 51.7L-89.5 -51.7Z" fill="#5661ae"></path></g><g transform="translate(109 367)"><path d="M0 -29L25.1 -14.5L25.1 14.5L0 29L-25.1 14.5L-25.1 -14.5Z" fill="#5661ae"></path></g><g transform="translate(640 436)"><path d="M0 -49L42.4 -24.5L42.4 24.5L0 49L-42.4 24.5L-42.4 -24.5Z" fill="#5661ae"></path></g><g transform="translate(131 138)"><path d="M0 -82L71 -41L71 41L0 82L-71 41L-71 -41Z" fill="#5661ae"></path></g><g transform="translate(373 457)"><path d="M0 -78L67.5 -39L67.5 39L0 78L-67.5 39L-67.5 -39Z" fill="#5661ae"></path></g><g transform="translate(771 267)"><path d="M0 -46L39.8 -23L39.8 23L0 46L-39.8 23L-39.8 -23Z" fill="#5661ae"></path></g><g transform="translate(355 238)"><path d="M0 -85L73.6 -42.5L73.6 42.5L0 85L-73.6 42.5L-73.6 -42.5Z" fill="#5661ae"></path></g></g></svg>